<svg width="60" height="60" viewBox="0 0 60 60" fill="none" xmlns="http://www.w3.org/2000/svg">
<g filter="url(#filter0_d_4_272)">
<rect x="10" y="10" width="30" height="30" rx="1.5" fill="black"/>
<path d="M26.6149 26.075C26.6149 26.5935 26.2034 27.0185 25.6823 27.0185C25.1703 27.0185 24.7497 26.5935 24.7497 26.075C24.7497 25.5565 25.1611 25.1315 25.6823 25.1315C26.2034 25.1315 26.6149 25.5565 26.6149 26.075ZM22.3451 25.1315C21.824 25.1315 21.4126 25.5565 21.4126 26.075C21.4126 26.5935 21.8331 27.0185 22.3451 27.0185C22.8663 27.0185 23.2777 26.5935 23.2777 26.075C23.2869 25.5565 22.8663 25.1315 22.3451 25.1315ZM32 19.751V35C29.6966 33.1076 30.4333 33.734 27.7577 31.4215L28.2423 32.994H17.8743C16.8411 32.994 16 32.212 16 31.243V19.751C16 18.782 16.8411 18 17.8743 18H30.1257C31.1589 18 32 18.782 32 19.751ZM29.3943 27.809C29.3943 25.072 28.0777 22.8535 28.0777 22.8535C26.7611 21.9355 25.5086 21.961 25.5086 21.961L25.3806 22.097C26.9349 22.539 27.6571 23.1765 27.6571 23.1765C25.4853 22.0699 22.9341 22.0697 20.8274 22.93C20.4891 23.0745 20.288 23.1765 20.288 23.1765C20.288 23.1765 21.0469 22.505 22.6926 22.063L22.6011 21.961C22.6011 21.961 21.3486 21.9355 20.032 22.8535C20.032 22.8535 18.7154 25.072 18.7154 27.809C18.7154 27.809 19.4834 29.0415 21.504 29.101C21.504 29.101 21.8423 28.7185 22.1166 28.3955C20.9554 28.0725 20.5166 27.3925 20.5166 27.3925C20.6511 27.48 20.8729 27.5935 20.8914 27.605C22.4346 28.4084 24.6267 28.6717 26.5966 27.9025C26.9166 27.792 27.2731 27.6305 27.648 27.401C27.648 27.401 27.1909 28.098 25.9931 28.4125C26.2674 28.7355 26.5966 29.101 26.5966 29.101C28.6171 29.0415 29.3943 27.809 29.3943 27.809Z" fill="white"/>
<rect x="10.5" y="10.5" width="29" height="29" rx="1" stroke="#232020"/>
</g>
<defs>
<filter id="filter0_d_4_272" x="0" y="0" width="60" height="60" filterUnits="userSpaceOnUse" color-interpolation-filters="sRGB">
<feFlood flood-opacity="0" result="BackgroundImageFix"/>
<feColorMatrix in="SourceAlpha" type="matrix" values="0 0 0 0 0 0 0 0 0 0 0 0 0 0 0 0 0 0 127 0" result="hardAlpha"/>
<feOffset dx="5" dy="5"/>
<feGaussianBlur stdDeviation="7.5"/>
<feComposite in2="hardAlpha" operator="out"/>
<feColorMatrix type="matrix" values="0 0 0 0 0 0 0 0 0 0 0 0 0 0 0 0 0 0 0.7 0"/>
<feBlend mode="normal" in2="BackgroundImageFix" result="effect1_dropShadow_4_272"/>
<feBlend mode="normal" in="SourceGraphic" in2="effect1_dropShadow_4_272" result="shape"/>
</filter>
</defs>
</svg>
