<svg width="60" height="60" viewBox="0 0 60 60" fill="none" xmlns="http://www.w3.org/2000/svg">
<g filter="url(#filter0_d_4_274)">
<rect x="10" y="10" width="30" height="30" rx="1.5" fill="black"/>
<path d="M25.002 21.385C22.4481 21.385 20.3881 23.4455 20.3881 26C20.3881 28.5545 22.4481 30.615 25.002 30.615C27.5559 30.615 29.616 28.5545 29.616 26C29.616 23.4455 27.5559 21.385 25.002 21.385ZM25.002 29.0003C23.3516 29.0003 22.0023 27.6548 22.0023 26C22.0023 24.3452 23.3476 22.9997 25.002 22.9997C26.6564 22.9997 28.0017 24.3452 28.0017 26C28.0017 27.6548 26.6524 29.0003 25.002 29.0003ZM30.8809 21.1963C30.8809 21.7947 30.399 22.2727 29.8047 22.2727C29.2064 22.2727 28.7285 21.7907 28.7285 21.1963C28.7285 20.6018 29.2104 20.1198 29.8047 20.1198C30.399 20.1198 30.8809 20.6018 30.8809 21.1963ZM33.9368 22.2887C33.8685 20.8468 33.5392 19.5696 32.4831 18.5172C31.431 17.4649 30.154 17.1356 28.7124 17.0633C27.2267 16.9789 22.7733 16.9789 21.2876 17.0633C19.85 17.1315 18.573 17.4609 17.5169 18.5132C16.4608 19.5655 16.1355 20.8428 16.0632 22.2847C15.9789 23.7708 15.9789 28.2251 16.0632 29.7113C16.1315 31.1532 16.4608 32.4304 17.5169 33.4828C18.573 34.5351 19.846 34.8644 21.2876 34.9367C22.7733 35.0211 27.2267 35.0211 28.7124 34.9367C30.154 34.8685 31.431 34.5391 32.4831 33.4828C33.5352 32.4304 33.8645 31.1532 33.9368 29.7113C34.0211 28.2251 34.0211 23.7749 33.9368 22.2887ZM32.0173 31.3058C31.7041 32.093 31.0977 32.6995 30.3066 33.0168C29.122 33.4868 26.3111 33.3783 25.002 33.3783C23.6929 33.3783 20.878 33.4828 19.6974 33.0168C18.9103 32.7036 18.304 32.0971 17.9867 31.3058C17.5169 30.1209 17.6253 27.3094 17.6253 26C17.6253 24.6906 17.5209 21.875 17.9867 20.6942C18.2999 19.907 18.9063 19.3005 19.6974 18.9832C20.882 18.5132 23.6929 18.6217 25.002 18.6217C26.3111 18.6217 29.126 18.5172 30.3066 18.9832C31.0937 19.2964 31.7001 19.9029 32.0173 20.6942C32.4871 21.8791 32.3787 24.6906 32.3787 26C32.3787 27.3094 32.4871 30.125 32.0173 31.3058Z" fill="white"/>
<rect x="10.5" y="10.5" width="29" height="29" rx="1" stroke="#232020"/>
</g>
<defs>
<filter id="filter0_d_4_274" x="0" y="0" width="60" height="60" filterUnits="userSpaceOnUse" color-interpolation-filters="sRGB">
<feFlood flood-opacity="0" result="BackgroundImageFix"/>
<feColorMatrix in="SourceAlpha" type="matrix" values="0 0 0 0 0 0 0 0 0 0 0 0 0 0 0 0 0 0 127 0" result="hardAlpha"/>
<feOffset dx="5" dy="5"/>
<feGaussianBlur stdDeviation="7.5"/>
<feComposite in2="hardAlpha" operator="out"/>
<feColorMatrix type="matrix" values="0 0 0 0 0 0 0 0 0 0 0 0 0 0 0 0 0 0 0.7 0"/>
<feBlend mode="normal" in2="BackgroundImageFix" result="effect1_dropShadow_4_274"/>
<feBlend mode="normal" in="SourceGraphic" in2="effect1_dropShadow_4_274" result="shape"/>
</filter>
</defs>
</svg>
