<svg width="60" height="60" viewBox="0 0 60 60" fill="none" xmlns="http://www.w3.org/2000/svg">
<g filter="url(#filter0_d_4_266)">
<rect x="10" y="10" width="30" height="30" rx="1.5" fill="black"/>
<path d="M32.1498 21.2367C32.1612 21.4226 32.1612 21.6086 32.1612 21.7945C32.1612 27.4656 28.4493 34 21.665 34C19.5749 34 17.6333 33.2961 16 32.0742C16.297 32.1141 16.5825 32.1273 16.8909 32.1273C18.6155 32.1273 20.2031 31.45 21.4708 30.2945C19.849 30.2547 18.4898 29.0195 18.0216 27.3195C18.25 27.3593 18.4784 27.3859 18.7183 27.3859C19.0495 27.3859 19.3807 27.3328 19.6891 27.2399C17.9987 26.8414 16.7309 25.1148 16.7309 23.0297V22.9766C17.222 23.2953 17.7932 23.4945 18.3984 23.5211C17.4048 22.7507 16.7538 21.4359 16.7538 19.9484C16.7538 19.1515 16.9365 18.4211 17.2563 17.7836C19.0723 20.3867 21.802 22.0867 24.8629 22.2726C24.8058 21.9539 24.7716 21.6219 24.7716 21.2898C24.7716 18.9258 26.4162 17 28.4607 17C29.5228 17 30.4822 17.518 31.1561 18.3547C31.9898 18.1688 32.7893 17.8101 33.4975 17.3188C33.2233 18.3149 32.6409 19.1516 31.8756 19.6828C32.618 19.5899 33.3376 19.3508 34 19.0188C33.4975 19.8687 32.8693 20.6257 32.1498 21.2367Z" fill="white"/>
<rect x="10.5" y="10.5" width="29" height="29" rx="1" stroke="#232020"/>
</g>
<defs>
<filter id="filter0_d_4_266" x="0" y="0" width="60" height="60" filterUnits="userSpaceOnUse" color-interpolation-filters="sRGB">
<feFlood flood-opacity="0" result="BackgroundImageFix"/>
<feColorMatrix in="SourceAlpha" type="matrix" values="0 0 0 0 0 0 0 0 0 0 0 0 0 0 0 0 0 0 127 0" result="hardAlpha"/>
<feOffset dx="5" dy="5"/>
<feGaussianBlur stdDeviation="7.5"/>
<feComposite in2="hardAlpha" operator="out"/>
<feColorMatrix type="matrix" values="0 0 0 0 0 0 0 0 0 0 0 0 0 0 0 0 0 0 0.7 0"/>
<feBlend mode="normal" in2="BackgroundImageFix" result="effect1_dropShadow_4_266"/>
<feBlend mode="normal" in="SourceGraphic" in2="effect1_dropShadow_4_266" result="shape"/>
</filter>
</defs>
</svg>
