<svg width="60" height="60" viewBox="0 0 60 60" fill="none" xmlns="http://www.w3.org/2000/svg">
<g filter="url(#filter0_d_4_270)">
<rect x="10" y="10" width="30" height="30" rx="1.5" fill="black"/>
<path d="M34.603 20.1905C34.3845 19.3283 33.7406 18.6492 32.9232 18.4188C31.4415 18 25.5 18 25.5 18C25.5 18 19.5586 18 18.0768 18.4188C17.2594 18.6492 16.6155 19.3283 16.397 20.1905C16 21.7534 16 25.0141 16 25.0141C16 25.0141 16 28.2749 16.397 29.8378C16.6155 30.7 17.2594 31.3508 18.0768 31.5812C19.5586 32 25.5 32 25.5 32C25.5 32 31.4414 32 32.9232 31.5812C33.7406 31.3508 34.3845 30.7 34.603 29.8378C35 28.2749 35 25.0141 35 25.0141C35 25.0141 35 21.7534 34.603 20.1905ZM23.5568 27.9747V22.0536L28.5227 25.0142L23.5568 27.9747Z" fill="white"/>
<rect x="10.5" y="10.5" width="29" height="29" rx="1" stroke="#232020"/>
</g>
<defs>
<filter id="filter0_d_4_270" x="0" y="0" width="60" height="60" filterUnits="userSpaceOnUse" color-interpolation-filters="sRGB">
<feFlood flood-opacity="0" result="BackgroundImageFix"/>
<feColorMatrix in="SourceAlpha" type="matrix" values="0 0 0 0 0 0 0 0 0 0 0 0 0 0 0 0 0 0 127 0" result="hardAlpha"/>
<feOffset dx="5" dy="5"/>
<feGaussianBlur stdDeviation="7.5"/>
<feComposite in2="hardAlpha" operator="out"/>
<feColorMatrix type="matrix" values="0 0 0 0 0 0 0 0 0 0 0 0 0 0 0 0 0 0 0.7 0"/>
<feBlend mode="normal" in2="BackgroundImageFix" result="effect1_dropShadow_4_270"/>
<feBlend mode="normal" in="SourceGraphic" in2="effect1_dropShadow_4_270" result="shape"/>
</filter>
</defs>
</svg>
