<svg width="50" height="46" viewBox="0 0 50 46" fill="none" xmlns="http://www.w3.org/2000/svg">
<path d="M45.3125 23.0001H37.5V16.473C37.5 12.8729 40.3027 9.94591 43.75 9.94591H44.5312C45.8301 9.94591 46.875 8.85466 46.875 7.49825V2.60293C46.875 1.24652 45.8301 0.155273 44.5312 0.155273H43.75C35.1172 0.155273 28.125 7.45746 28.125 16.473V40.9496C28.125 43.6522 30.2246 45.8449 32.8125 45.8449H45.3125C47.9004 45.8449 50 43.6522 50 40.9496V27.8954C50 25.1928 47.9004 23.0001 45.3125 23.0001ZM17.1875 23.0001H9.375V16.473C9.375 12.8729 12.1777 9.94591 15.625 9.94591H16.4062C17.7051 9.94591 18.75 8.85466 18.75 7.49825V2.60293C18.75 1.24652 17.7051 0.155273 16.4062 0.155273H15.625C6.99219 0.155273 0 7.45746 0 16.473V40.9496C0 43.6522 2.09961 45.8449 4.6875 45.8449H17.1875C19.7754 45.8449 21.875 43.6522 21.875 40.9496V27.8954C21.875 25.1928 19.7754 23.0001 17.1875 23.0001Z" fill="#FFFAFA"/>
</svg>
